<svg width="185.727" height="59.05" viewBox="0 0 185.727 59.05" xmlns="http://www.w3.org/2000/svg"><g id="svgGroup" stroke-linecap="round" fill-rule="nonzero" font-size="9pt" stroke="#77767b" stroke-width="0.1" fill="#2ec27e" style="stroke:#77767b;stroke-width:0.1;fill:#2ec27e"><path d="M 80.127 27.28 A 9.26 9.26 0 0 1 81.278 27.344 A 1.891 1.891 0 0 1 83.407 29.36 A 3.644 3.644 0 0 1 83.1 30.769 C 82.401 32.454 80.46 34.646 76.767 38.4 C 77.858 40.927 79.651 44.65 80.989 47.467 A 174.916 174.916 0 0 1 82.287 50.24 C 83.425 52.8 84.057 54.349 84.183 55.897 A 7.147 7.147 0 0 1 84.207 56.48 A 1.792 1.792 0 0 1 84.013 57.302 C 83.689 57.931 82.86 58.56 80.847 58.56 A 19.053 19.053 0 0 1 77.258 58.199 A 40.608 40.608 0 0 1 70.127 56 A 25.283 25.283 0 0 1 68.244 55.229 A 2.761 2.761 0 0 1 66.207 52.96 A 29.016 29.016 0 0 1 66.141 51.593 A 69.582 69.582 0 0 1 66.127 49.84 L 68.047 47.12 A 75.203 75.203 0 0 1 62.45 51.86 C 58.678 54.694 55.079 56.48 51.407 56.48 C 49.647 56.48 47.887 56 46.127 54.16 C 45.049 53.033 43.941 51.636 43.244 49.306 A 19.862 19.862 0 0 1 42.527 43.6 A 11.622 11.622 0 0 1 42.527 43.539 C 42.569 35.523 50.853 20.231 53.007 16.8 A 35.044 35.044 0 0 1 53.815 15.524 C 55.573 12.881 57.19 11.377 58.927 10.96 C 64.534 9.692 73.093 7.978 77.308 7.445 A 17.231 17.231 0 0 1 79.247 7.28 A 1.904 1.904 0 0 1 81.1 9.553 C 81.1 9.637 81.097 9.72 81.093 9.804 A 5.46 5.46 0 0 1 80.527 12 C 77.887 16.24 76.287 19.04 74.767 21.6 C 74.207 22.72 73.007 23.52 71.247 23.76 C 70.779 23.838 69.93 23.935 69.081 24.014 A 30.238 30.238 0 0 1 66.847 24.16 A 1.911 1.911 0 0 1 64.857 22.367 A 2.183 2.183 0 0 1 64.847 22.16 A 32.955 32.955 0 0 1 65.097 18.395 A 23.931 23.931 0 0 1 65.407 16.48 A 56.525 56.525 0 0 0 64.026 19.105 C 62.311 22.559 60.596 26.64 59.967 28.4 A 55.557 55.557 0 0 0 59.244 30.362 C 58.36 32.903 57.724 35.3 57.344 37.071 A 16.252 16.252 0 0 0 56.927 39.76 A 12.693 12.693 0 0 0 56.941 40.405 A 1.708 1.708 0 0 0 58.367 42.48 A 2.57 2.57 0 0 0 59.586 41.955 C 61.477 40.7 64.464 37.483 66.047 35.52 L 63.007 35.52 C 62.127 35.52 61.887 34.8 61.887 33.6 L 61.887 30.08 C 61.887 28.16 63.327 27.36 65.247 27.36 L 80.127 27.28 Z M 18.687 49.52 C 18.527 51.44 18.207 52.16 16.847 52.96 C 13.818 54.723 9.916 56.789 6.735 57.905 A 12.112 12.112 0 0 1 3.007 58.72 A 2.803 2.803 0 0 1 1.293 58.232 A 4.554 4.554 0 0 1 0.047 54.4 A 7.797 7.797 0 0 1 0.217 53.061 A 74.785 74.785 0 0 1 1.407 48.24 A 323.889 323.889 0 0 1 2.4 44.778 C 4.852 36.41 7.679 28.041 13.167 12 L 9.647 17.44 L 6.527 12.08 A 7.706 7.706 0 0 1 5.501 9.326 A 9.787 9.787 0 0 1 5.407 7.84 C 5.407 6.56 5.887 5.76 7.647 5.04 A 10.918 10.918 0 0 1 8.258 4.805 C 10.776 3.907 17.461 2.108 22.706 0.925 A 100.516 100.516 0 0 1 26.367 0.16 C 26.607 0.08 26.927 0 27.167 0 C 28.047 0 29.007 0.56 29.727 2.56 C 31.625 7.62 33.563 14.953 35.544 21.589 A 148.106 148.106 0 0 0 37.887 28.88 C 40.847 28.88 43.167 28.96 43.167 30.4 C 43.167 31.558 41.923 34.157 40.679 36.3 A 38.975 38.975 0 0 1 40.287 36.96 A 24.938 24.938 0 0 0 40.421 37.428 C 41.017 39.449 42.818 45.049 44.128 48.749 A 67.207 67.207 0 0 0 45.007 51.12 A 68.768 68.768 0 0 1 45.141 51.446 C 45.791 53.04 46.157 54.133 46.299 55.226 A 8.459 8.459 0 0 1 46.367 56.32 C 46.367 57.2 45.887 58.72 42.527 58.72 A 20.071 20.071 0 0 1 38.17 58.174 A 88.252 88.252 0 0 1 30.287 55.84 A 32.104 32.104 0 0 1 29.591 55.604 C 28.933 55.373 28.386 55.151 27.933 54.93 A 3.095 3.095 0 0 1 25.807 51.6 L 25.807 41.92 L 30.367 40.32 C 27.967 40.48 24.847 40.8 22.447 41.12 C 20.607 41.36 17.087 41.84 15.087 42.32 L 19.327 42.64 L 18.687 49.52 Z M 20.367 30.08 A 282.313 282.313 0 0 1 24.721 29.487 A 162.041 162.041 0 0 1 30.207 28.88 C 28.527 28.64 26.767 28.48 25.087 28.48 L 22.447 13.84 L 20.367 30.08 Z M 146.927 39.52 A 619.542 619.542 0 0 1 149.017 42.372 C 153.114 48.009 156.127 52.608 156.127 56.32 C 156.127 58.56 154.047 58.88 151.887 58.88 C 146.607 58.88 137.407 56.48 136.367 53.76 L 130.847 40.08 C 130.847 44.24 131.007 48 131.007 50.48 A 2.598 2.598 0 0 1 129.938 53.144 A 5.279 5.279 0 0 1 129.727 53.28 A 59.653 59.653 0 0 1 129.021 53.708 C 126.376 55.286 123.276 56.864 120.704 57.774 A 11.483 11.483 0 0 1 117.167 58.56 A 2.658 2.658 0 0 1 116.096 58.36 A 3.478 3.478 0 0 1 114.607 54.8 A 29.024 29.024 0 0 1 114.659 53.149 C 115.095 45.543 118.209 31.486 120.629 23.582 A 63.895 63.895 0 0 1 121.487 20.96 L 123.407 15.6 L 120.527 20.24 L 115.567 16.24 A 7.941 7.941 0 0 1 114.964 15.71 A 2.302 2.302 0 0 1 114.287 13.84 A 2.705 2.705 0 0 1 116.277 11.665 A 19.451 19.451 0 0 1 116.927 11.36 A 96.707 96.707 0 0 1 125.173 8.031 A 15.855 15.855 0 0 1 129.647 7.04 A 1.97 1.97 0 0 1 130.375 7.274 C 132.541 8.304 137.985 12.528 141.952 15.769 A 190.92 190.92 0 0 1 144.447 17.84 A 16.113 16.113 0 0 1 147.439 21.333 C 149.083 23.936 149.647 26.539 149.647 28.24 A 5.78 5.78 0 0 1 149.569 29.207 C 149.033 32.366 145.847 33.629 142.662 34.017 A 20.445 20.445 0 0 1 140.207 34.16 A 21.124 21.124 0 0 1 137.831 34.087 A 8.914 8.914 0 0 1 137.247 34 A 150.21 150.21 0 0 1 138.523 35.5 C 140.798 38.213 142.478 40.414 144.308 42.768 A 207.386 207.386 0 0 0 147.967 47.36 L 144.687 41.44 L 146.927 39.52 Z M 130.607 27.84 C 132.127 28.56 134.287 28.8 134.927 28.8 A 1.35 1.35 0 0 0 136.222 27.68 A 3.825 3.825 0 0 0 136.367 26.64 C 136.367 25.486 135.951 24.748 134.009 23.677 A 38.112 38.112 0 0 0 131.007 22.24 L 130.687 26.08 L 130.607 27.2 L 130.607 27.84 Z M 161.407 50.48 A 3.15 3.15 0 0 1 160.05 53.367 A 5.826 5.826 0 0 1 159.807 53.52 C 155.887 55.76 150.447 58.56 147.567 58.56 A 2.658 2.658 0 0 1 146.496 58.36 A 3.478 3.478 0 0 1 145.007 54.8 A 6.019 6.019 0 0 1 145.104 53.872 A 47.719 47.719 0 0 1 146.207 49.36 A 316.322 316.322 0 0 1 147.128 46.14 C 148.734 40.635 150.511 35.129 153.337 26.783 A 2403.886 2403.886 0 0 1 156.527 17.44 L 153.407 22.24 L 150.687 17.52 A 7.029 7.029 0 0 1 149.82 15.133 A 8.72 8.72 0 0 1 149.727 13.76 C 149.727 12.64 150.127 12 151.647 11.36 A 8.627 8.627 0 0 1 152.108 11.176 C 154.273 10.373 160.238 8.752 164.89 7.707 A 80.273 80.273 0 0 1 168.127 7.04 C 168.367 6.96 168.607 6.88 168.847 6.88 A 1.757 1.757 0 0 1 169.315 6.941 A 3.008 3.008 0 0 1 171.087 9.12 A 73.937 73.937 0 0 1 172.041 11.869 C 173.331 15.813 174.646 20.632 175.986 25.147 A 134.744 134.744 0 0 0 178.287 32.32 A 25.393 25.393 0 0 1 180.915 32.413 A 1.722 1.722 0 0 1 182.927 33.68 A 2.227 2.227 0 0 1 182.88 34.102 C 182.66 35.223 181.705 37.133 180.75 38.79 A 43.268 43.268 0 0 1 180.367 39.44 A 106.439 106.439 0 0 1 180.514 39.841 C 181.272 41.925 183.486 48.118 184.527 50.72 C 185.407 52.8 185.727 53.92 185.727 55.36 A 1.792 1.792 0 0 1 185.533 56.182 C 185.209 56.811 184.38 57.44 182.367 57.44 A 17.071 17.071 0 0 1 178.852 57.031 A 69.711 69.711 0 0 1 171.567 54.88 A 31.49 31.49 0 0 1 171.079 54.717 C 170.405 54.485 169.86 54.268 169.421 54.051 A 2.634 2.634 0 0 1 167.647 51.2 L 167.647 43.76 L 171.647 42.4 C 169.567 42.48 166.847 42.8 164.687 43.04 A 268.942 268.942 0 0 0 161.307 43.542 A 32.342 32.342 0 0 0 158.207 44.16 L 161.967 44.4 L 161.407 50.48 Z M 162.847 33.36 A 712.147 712.147 0 0 1 166.565 32.858 A 98.818 98.818 0 0 1 171.567 32.32 C 170.047 32.08 168.527 31.92 167.007 31.92 L 164.687 19.04 L 162.847 33.36 Z M 108.847 14.16 A 31.664 31.664 0 0 1 111.161 16.375 C 115.124 20.555 119.087 26.76 119.087 32.24 A 17.059 17.059 0 0 1 114.72 43.663 A 31.973 31.973 0 0 1 107.727 49.6 A 78.231 78.231 0 0 1 104.077 51.857 C 97.677 55.558 93.529 56.48 89.727 56.48 C 82.527 56.48 79.567 51.12 79.567 43.6 A 11.622 11.622 0 0 1 79.567 43.539 C 79.609 35.523 87.893 20.231 90.047 16.8 A 35.044 35.044 0 0 1 90.855 15.524 C 92.613 12.881 94.23 11.377 95.967 10.96 C 101.574 9.692 110.133 7.978 114.348 7.445 A 17.231 17.231 0 0 1 116.287 7.28 A 1.904 1.904 0 0 1 118.14 9.553 C 118.14 9.637 118.137 9.72 118.133 9.804 A 5.46 5.46 0 0 1 117.567 12 C 116.127 14.16 115.087 16 114.207 17.6 L 108.847 14.16 Z M 96.207 42.48 C 99.487 42.48 106.367 36.24 106.367 33.2 A 7.088 7.088 0 0 0 106.13 31.459 C 105.532 29.093 103.783 25.935 100.687 20.88 C 97.007 27.6 93.967 34.16 93.967 39.2 C 93.967 40.96 94.207 42.48 96.207 42.48 Z"/></g></svg>